<?xml version="1.0" encoding="utf-8"?><svg viewBox="0 0 880 880" xmlns="http://www.w3.org/2000/svg" xmlns:xlink="http://www.w3.org/1999/xlink"><style>:root>svg{display:none}:root>svg:target{display:block}</style><svg viewBox="0 0 880 880" id="pilot-helmet-freesvg.org" xmlns="http://www.w3.org/2000/svg"><path d="M41.521 913.528h4.903c1.513 0 2.701-.141 3.563-.424.861-.283 1.548-.68 2.06-1.19.72-.722 1.281-1.693 1.682-2.91.403-1.219.604-2.696.604-4.43 0-2.405-.393-4.253-1.182-5.545-.788-1.289-1.747-2.156-2.874-2.594-.816-.314-2.125-.47-3.932-.47h-4.824zm-3.042 2.708v-22.98h7.909c1.784 0 3.147.11 4.087.33 1.314.303 2.437.851 3.366 1.646 1.211 1.023 2.116 2.332 2.716 3.925.602 1.594.902 3.416.902 5.464 0 1.744-.204 3.292-.611 4.639-.407 1.348-.93 2.464-1.567 3.347-.636.884-1.333 1.578-2.09 2.085-.756.507-1.67.89-2.74 1.152-1.07.261-2.299.392-3.688.392zm24.916-9.917h9.292c-.126-1.403-.48-2.456-1.066-3.158-.898-1.089-2.064-1.633-3.494-1.633-1.295 0-2.384.435-3.267 1.304-.883.868-1.37 2.03-1.465 3.487m9.261 4.542 2.916.375c-.46 1.703-1.31 3.024-2.553 3.964-1.242.94-2.83 1.41-4.762 1.41-2.432 0-4.362-.749-5.786-2.249-1.426-1.498-2.138-3.601-2.138-6.308 0-2.8.72-4.972 2.162-6.518 1.44-1.547 3.309-2.32 5.606-2.32 2.224 0 4.04.757 5.451 2.272 1.41 1.514 2.115 3.646 2.115 6.392 0 .168-.006.42-.016.753H63.228c.105 1.83.623 3.233 1.553 4.207.931.972 2.092 1.46 3.483 1.46 1.035 0 1.919-.274 2.65-.822.733-.546 1.313-1.418 1.742-2.616m5.329.395 2.792-.437c.158 1.122.594 1.985 1.311 2.582.717.598 1.719.898 3.005.898 1.298 0 2.26-.266 2.888-.794.628-.529.942-1.148.942-1.861 0-.639-.276-1.14-.827-1.507-.385-.252-1.347-.57-2.884-.958-2.072-.523-3.508-.975-4.308-1.355-.8-.381-1.407-.908-1.82-1.583a4.182 4.182 0 0 1-.619-2.232c0-.742.17-1.428.51-2.06a4.567 4.567 0 0 1 1.386-1.576c.439-.322 1.038-.597 1.796-.821a8.506 8.506 0 0 1 2.438-.337c1.305 0 2.453.188 3.44.564.988.376 1.717.885 2.188 1.526.469.643.793 1.5.972 2.576l-2.751.375c-.125-.856-.49-1.525-1.09-2.007-.602-.481-1.453-.721-2.55-.721-1.299 0-2.224.215-2.779.644-.554.428-.83.93-.83 1.507 0 .366.114.697.345.989.23.304.59.556 1.081.755.283.105 1.115.345 2.496.721 1.998.535 3.391.97 4.178 1.31.786.34 1.404.833 1.852 1.48.448.649.672 1.451.672 2.413 0 .94-.275 1.825-.823 2.656-.55.829-1.341 1.472-2.377 1.926-1.035.455-2.206.682-3.512.682-2.164 0-3.815-.451-4.948-1.351-1.136-.899-1.86-2.233-2.174-4.004M95.17 899.59h2.813v16.645H95.17zm0-6.334h2.813v3.25H95.17zm8.934 14.36c0 2.185.433 3.779 1.299 4.781.866 1.004 1.952 1.506 3.256 1.506 1.293 0 2.378-.499 3.256-1.498.876-.997 1.313-2.562 1.313-4.696 0-2.037-.45-3.573-1.353-4.609-.903-1.033-1.99-1.552-3.264-1.552-1.251 0-2.316.51-3.192 1.53-.876 1.018-1.315 2.531-1.315 4.538m-2.333 9.995 2.749.417c.115.843.433 1.457.955 1.843.698.521 1.653.781 2.862.781 1.304 0 2.311-.261 3.02-.784.708-.523 1.19-1.255 1.439-2.196.147-.576.213-1.783.204-3.624-1.232 1.459-2.767 2.188-4.604 2.188-2.287 0-4.057-.825-5.31-2.477-1.253-1.651-1.878-3.63-1.878-5.94 0-1.588.288-3.054.861-4.396.575-1.342 1.408-2.38 2.499-3.111 1.092-.73 2.373-1.097 3.847-1.097 1.962 0 3.582.792 4.856 2.374v-2h2.604v14.386c0 2.592-.264 4.428-.791 5.508-.528 1.081-1.364 1.934-2.508 2.562-1.144.627-2.552.94-4.224.94-1.984 0-3.588-.446-4.81-1.34-1.223-.893-1.814-2.237-1.771-4.034m18.368-1.375v-16.647h2.52v2.367c1.221-1.827 2.986-2.741 5.293-2.741 1.003 0 1.925.18 2.765.54.84.361 1.47.833 1.887 1.42.417.584.71 1.28.877 2.084.104.522.158 1.436.158 2.742v10.235h-2.814v-10.13c0-1.15-.109-2.01-.328-2.58-.22-.569-.608-1.025-1.166-1.363-.559-.342-1.215-.511-1.966-.511-1.2 0-2.236.381-3.108 1.145-.87.763-1.306 2.211-1.306 4.343v9.096zm19.944-9.917h9.292c-.126-1.403-.482-2.456-1.066-3.158-.898-1.089-2.064-1.633-3.494-1.633-1.296 0-2.384.435-3.267 1.304-.883.868-1.372 2.03-1.465 3.487m9.26 4.542 2.917.375c-.46 1.703-1.312 3.024-2.553 3.964-1.243.94-2.83 1.41-4.762 1.41-2.433 0-4.362-.749-5.786-2.249-1.427-1.498-2.139-3.601-2.139-6.308 0-2.8.72-4.972 2.161-6.518 1.442-1.547 3.311-2.32 5.607-2.32 2.224 0 4.041.757 5.45 2.272 1.41 1.514 2.115 3.646 2.115 6.392 0 .168-.005.42-.016.753h-12.421c.104 1.83.623 3.233 1.553 4.207.93.972 2.091 1.46 3.482 1.46 1.036 0 1.918-.274 2.652-.822.73-.546 1.312-1.418 1.74-2.616m8.33-2.931c0 2.134.45 3.727 1.347 4.785.899 1.054 1.959 1.584 3.18 1.584 1.232 0 2.279-.504 3.14-1.514.861-1.009 1.292-2.548 1.292-4.618 0-2.28-.439-3.952-1.316-5.02-.876-1.064-1.957-1.599-3.241-1.599-1.254 0-2.299.513-3.14 1.536-.84 1.027-1.262 2.641-1.262 4.847m8.918 8.305v-2.095c-1.055 1.647-2.607 2.47-4.654 2.47a6.528 6.528 0 0 1-3.658-1.096c-1.112-.732-1.974-1.754-2.584-3.066-.611-1.31-.918-2.817-.918-4.521 0-1.661.278-3.168.832-4.52.554-1.353 1.383-2.39 2.491-3.112 1.107-.72 2.344-1.081 3.712-1.081 1.003 0 1.896.21 2.68.634a5.6 5.6 0 0 1 1.91 1.652v-8.245h2.814v22.98zm26.585-8.355c-1.023.419-2.557.774-4.601 1.066-1.159.168-1.979.357-2.459.565a2.45 2.45 0 0 0-1.11.916c-.262.403-.393.85-.393 1.341 0 .754.284 1.379.852 1.88.568.503 1.399.754 2.492.754 1.084 0 2.047-.238 2.891-.714.844-.476 1.464-1.125 1.86-1.95.301-.639.453-1.579.453-2.823zm.23 6.292c-1.049.891-2.055 1.522-3.018 1.887a8.656 8.656 0 0 1-3.103.55c-1.822 0-3.224-.446-4.202-1.34-.979-.893-1.47-2.034-1.47-3.422 0-.816.186-1.56.555-2.233a4.613 4.613 0 0 1 1.453-1.623 6.826 6.826 0 0 1 2.024-.924c.552-.147 1.386-.288 2.5-.424 2.271-.27 3.943-.595 5.016-.97.01-.387.015-.634.015-.738 0-1.15-.265-1.961-.797-2.43-.719-.64-1.788-.958-3.206-.958-1.322 0-2.3.233-2.93.699-.632.464-1.098 1.286-1.4 2.468l-2.75-.375c.251-1.181.663-2.135 1.238-2.861.573-.726 1.402-1.284 2.489-1.675 1.085-.393 2.344-.59 3.775-.59 1.418 0 2.572.167 3.461.502.887.335 1.539.756 1.956 1.261.419.507.71 1.148.877 1.92.095.482.142 1.35.142 2.602v3.762c0 2.623.06 4.282.181 4.978.12.693.357 1.358.715 1.997h-2.938c-.302-.59-.497-1.276-.584-2.063m7.008 2.063v-16.647h2.52v2.367c1.222-1.827 2.987-2.741 5.294-2.741 1.002 0 1.925.18 2.765.54.841.361 1.47.833 1.887 1.42.417.584.71 1.28.877 2.084.104.522.157 1.436.157 2.742v10.235H211.1v-10.13c0-1.15-.11-2.01-.328-2.58-.22-.569-.608-1.025-1.167-1.363-.558-.342-1.214-.511-1.965-.511-1.2 0-2.236.381-3.108 1.145-.87.763-1.307 2.211-1.307 4.343v9.096zm19.695-8.306c0 2.134.448 3.727 1.345 4.785.899 1.054 1.959 1.584 3.18 1.584 1.232 0 2.279-.504 3.142-1.514.86-1.009 1.29-2.548 1.29-4.618 0-2.28-.438-3.952-1.314-5.02-.878-1.064-1.959-1.599-3.243-1.599-1.253 0-2.299.513-3.14 1.536-.84 1.027-1.26 2.641-1.26 4.847m8.916 8.305v-2.095c-1.055 1.647-2.607 2.47-4.653 2.47a6.527 6.527 0 0 1-3.658-1.096c-1.112-.732-1.974-1.754-2.585-3.066-.61-1.31-.916-2.817-.916-4.521 0-1.661.276-3.168.83-4.52.554-1.353 1.383-2.39 2.491-3.112 1.107-.72 2.344-1.081 3.714-1.081 1.002 0 1.894.21 2.678.634a5.6 5.6 0 0 1 1.911 1.652v-8.245h2.813v22.98zm15.941 0v-16.647h2.52v2.527c.65-1.181 1.25-1.961 1.799-2.336a3.144 3.144 0 0 1 1.816-.565c.953 0 1.921.304 2.907.909l-.987 2.61c-.688-.402-1.377-.602-2.065-.602-.615 0-1.168.184-1.658.556-.49.37-.84.885-1.049 1.544-.313 1.003-.47 2.1-.47 3.29v8.714zm12.828-9.917h9.291c-.125-1.403-.48-2.456-1.065-3.158-.899-1.089-2.063-1.633-3.494-1.633-1.296 0-2.385.435-3.268 1.304-.882.868-1.37 2.03-1.464 3.487m9.26 4.542 2.916.375c-.46 1.703-1.309 3.024-2.552 3.964-1.244.94-2.83 1.41-4.761 1.41-2.433 0-4.363-.749-5.788-2.249-1.424-1.498-2.137-3.601-2.137-6.308 0-2.8.72-4.972 2.161-6.518 1.441-1.547 3.31-2.32 5.608-2.32 2.223 0 4.04.757 5.45 2.272 1.409 1.514 2.114 3.646 2.114 6.392 0 .168-.005.42-.016.753h-12.421c.104 1.83.621 3.233 1.552 4.207.932.972 2.092 1.46 3.482 1.46 1.035 0 1.919-.274 2.651-.822.732-.546 1.312-1.418 1.741-2.616m6.414-17.605h2.812v22.979h-2.812zm9.293 13.063h9.292c-.125-1.403-.481-2.456-1.065-3.158-.899-1.089-2.063-1.633-3.494-1.633-1.296 0-2.385.435-3.268 1.304-.882.868-1.37 2.03-1.465 3.487m9.261 4.542 2.916.375c-.46 1.703-1.31 3.024-2.553 3.964-1.243.94-2.83 1.41-4.761 1.41-2.432 0-4.362-.749-5.788-2.249-1.424-1.498-2.138-3.601-2.138-6.308 0-2.8.722-4.972 2.163-6.518 1.44-1.547 3.31-2.32 5.607-2.32 2.224 0 4.04.757 5.45 2.272 1.41 1.514 2.114 3.646 2.114 6.392 0 .168-.004.42-.015.753h-12.423c.106 1.83.623 3.233 1.554 4.207.93.972 2.09 1.46 3.482 1.46 1.035 0 1.919-.274 2.65-.822.732-.546 1.313-1.418 1.742-2.616m17.08-2.98c-1.022.419-2.557.774-4.602 1.066-1.159.168-1.978.357-2.458.565-.481.208-.85.515-1.112.916a2.41 2.41 0 0 0-.39 1.341c0 .754.284 1.379.85 1.88.568.503 1.399.754 2.494.754 1.082 0 2.046-.238 2.89-.714.843-.476 1.463-1.125 1.859-1.95.303-.639.453-1.579.453-2.823zm.23 6.292c-1.05.891-2.055 1.522-3.019 1.887a8.649 8.649 0 0 1-3.101.55c-1.823 0-3.224-.446-4.204-1.34-.979-.893-1.468-2.034-1.468-3.422 0-.816.184-1.56.554-2.233a4.587 4.587 0 0 1 1.454-1.623 6.818 6.818 0 0 1 2.022-.924c.552-.147 1.386-.288 2.5-.424 2.271-.27 3.943-.595 5.016-.97.011-.387.016-.634.016-.738 0-1.15-.266-1.961-.797-2.43-.72-.64-1.788-.958-3.205-.958-1.324 0-2.302.233-2.932.699-.631.464-1.098 1.286-1.399 2.468l-2.75-.375c.25-1.181.662-2.135 1.237-2.861.574-.726 1.404-1.284 2.489-1.675 1.087-.393 2.344-.59 3.775-.59 1.42 0 2.573.167 3.461.502.887.335 1.54.756 1.957 1.261.418.507.71 1.148.878 1.92.093.482.14 1.35.14 2.602v3.762c0 2.623.06 4.282.181 4.978.12.693.359 1.358.715 1.997h-2.938c-.302-.59-.497-1.276-.582-2.063m5.861-2.917 2.79-.437c.158 1.122.595 1.985 1.311 2.582.718.598 1.719.898 3.006.898 1.298 0 2.26-.266 2.888-.794.628-.529.942-1.148.942-1.861 0-.639-.276-1.14-.828-1.507-.385-.252-1.346-.57-2.884-.958-2.072-.523-3.508-.975-4.306-1.355-.802-.381-1.408-.908-1.822-1.583a4.194 4.194 0 0 1-.618-2.232c0-.742.169-1.428.509-2.06a4.58 4.58 0 0 1 1.387-1.576c.438-.322 1.038-.597 1.796-.821a8.513 8.513 0 0 1 2.437-.337c1.307 0 2.453.188 3.441.564.987.376 1.716.885 2.187 1.526.47.643.795 1.5.972 2.576l-2.75.375c-.126-.856-.489-1.525-1.091-2.007-.602-.481-1.451-.721-2.55-.721-1.297 0-2.224.215-2.778.644-.555.428-.831.93-.831 1.507 0 .366.115.697.345.989.23.304.591.556 1.083.755.283.105 1.115.345 2.495.721 1.998.535 3.39.97 4.177 1.31.787.34 1.404.833 1.852 1.48.448.649.673 1.451.673 2.413 0 .94-.274 1.825-.824 2.656-.549.829-1.341 1.472-2.376 1.926-1.036.455-2.206.682-3.513.682-2.164 0-3.813-.451-4.948-1.351-1.136-.899-1.86-2.233-2.172-4.004m19.289-4.937h9.292c-.125-1.403-.481-2.456-1.065-3.158-.899-1.089-2.064-1.633-3.495-1.633-1.296 0-2.384.435-3.268 1.304-.882.868-1.37 2.03-1.464 3.487m9.26 4.542 2.918.375c-.46 1.703-1.312 3.024-2.554 3.964-1.242.94-2.829 1.41-4.762 1.41-2.432 0-4.362-.749-5.787-2.249-1.425-1.498-2.137-3.601-2.137-6.308 0-2.8.72-4.972 2.161-6.518 1.44-1.547 3.31-2.32 5.607-2.32 2.224 0 4.041.757 5.45 2.272 1.41 1.514 2.115 3.646 2.115 6.392 0 .168-.005.42-.016.753h-12.421c.104 1.83.622 3.233 1.552 4.207.93.972 2.092 1.46 3.482 1.46 1.036 0 1.919-.274 2.651-.822.732-.546 1.312-1.418 1.741-2.616m8.329-2.931c0 2.134.45 3.727 1.347 4.785.899 1.054 1.959 1.584 3.18 1.584 1.232 0 2.279-.504 3.14-1.514.862-1.009 1.292-2.548 1.292-4.618 0-2.28-.438-3.952-1.316-5.02-.877-1.064-1.957-1.599-3.241-1.599-1.253 0-2.3.513-3.14 1.536-.84 1.027-1.261 2.641-1.261 4.847m8.917 8.305v-2.095c-1.055 1.647-2.605 2.47-4.653 2.47a6.528 6.528 0 0 1-3.659-1.096c-1.112-.732-1.973-1.754-2.584-3.066-.61-1.31-.917-2.817-.917-4.521 0-1.661.277-3.168.83-4.52.554-1.353 1.384-2.39 2.492-3.112 1.107-.72 2.343-1.081 3.714-1.081 1.002 0 1.896.21 2.678.634a5.62 5.62 0 0 1 1.911 1.652v-8.245h2.812v22.98zm15.982-16.646h2.813v16.645h-2.812zm0-6.334h2.813v3.25h-2.812zm7.127 22.98v-16.647h2.52v2.367c1.222-1.827 2.987-2.741 5.295-2.741 1.001 0 1.923.18 2.764.54.84.361 1.47.833 1.887 1.42.418.584.71 1.28.878 2.084.104.522.156 1.436.156 2.742v10.235h-2.813v-10.13c0-1.15-.11-2.01-.33-2.58-.218-.569-.606-1.025-1.165-1.363-.558-.342-1.213-.511-1.964-.511-1.201 0-2.237.381-3.108 1.145-.872.763-1.308 2.211-1.308 4.343v9.096zm29.293-8.226c0 2.142.435 3.727 1.3 4.751.866 1.026 1.915 1.538 3.146 1.538 1.252 0 2.325-.532 3.217-1.592.891-1.063 1.338-2.706 1.338-4.932 0-2.123-.436-3.711-1.307-4.768-.87-1.055-1.913-1.584-3.123-1.584-1.198 0-2.261.562-3.184 1.686-.924 1.124-1.386 2.756-1.386 4.9m-2.542 14.602v-23.022h2.563v2.163c.605-.844 1.29-1.48 2.052-1.903.761-.424 1.687-.634 2.773-.634 1.422 0 2.674.366 3.76 1.096 1.086.732 1.906 1.765 2.459 3.097.553 1.332.83 2.79.83 4.38 0 1.703-.305 3.236-.915 4.599-.611 1.364-1.499 2.409-2.663 3.136-1.165.725-2.39 1.088-3.675 1.088-.94 0-1.784-.198-2.53-.594a5.756 5.756 0 0 1-1.84-1.5v8.094zm28.716-6.375v-2.455c-1.29 1.887-3.046 2.83-5.265 2.83a6.7 6.7 0 0 1-2.743-.564c-.848-.376-1.478-.85-1.89-1.419-.411-.57-.7-1.267-.867-2.093-.115-.554-.172-1.431-.172-2.632v-10.314h2.813v9.227c0 1.473.058 2.464.171 2.977.177.74.553 1.323 1.127 1.746.573.424 1.281.634 2.126.634.844 0 1.636-.216 2.376-.649.74-.435 1.263-1.024 1.572-1.77.307-.747.462-1.831.462-3.251v-8.914h2.81v16.647zm9.507-8.448c0 1.997.272 3.44.816 4.33.89 1.454 2.092 2.18 3.61 2.18 1.235 0 2.303-.537 3.202-1.607.9-1.072 1.35-2.67 1.35-4.794 0-2.176-.431-3.781-1.295-4.816-.863-1.036-1.907-1.553-3.131-1.553-1.235 0-2.303.536-3.203 1.608-.898 1.07-1.349 2.621-1.349 4.652m.041 8.448h-2.604v-22.98h2.812v8.193c1.194-1.489 2.714-2.234 4.566-2.234 1.025 0 1.994.205 2.91.62a5.927 5.927 0 0 1 2.259 1.74c.59.745 1.055 1.646 1.388 2.702.336 1.055.503 2.184.503 3.386 0 2.852-.706 5.056-2.119 6.613-1.412 1.556-3.108 2.335-5.084 2.335-1.968 0-3.51-.818-4.63-2.454zm15.195-22.98h2.812v22.979h-2.812zm7.189 6.334h2.812v16.645h-2.812zm0-6.334h2.812v3.25h-2.812zm17.982 16.876 2.772.375c-.304 1.909-1.08 3.404-2.33 4.484-1.248 1.081-2.782 1.62-4.6 1.62-2.278 0-4.109-.746-5.494-2.234-1.386-1.488-2.076-3.622-2.076-6.402 0-1.796.297-3.37.892-4.716.596-1.348 1.501-2.359 2.718-3.034a8.081 8.081 0 0 1 3.974-1.01c1.806 0 3.286.458 4.434 1.372 1.148.916 1.886 2.216 2.21 3.898l-2.75.418c-.261-1.12-.722-1.963-1.386-2.528-.663-.566-1.464-.847-2.404-.847-1.42 0-2.575.51-3.462 1.53-.888 1.02-1.332 2.633-1.332 4.84 0 2.238.43 3.863 1.287 4.878.859 1.015 1.977 1.523 3.359 1.523 1.108 0 2.033-.342 2.776-1.023.742-.681 1.213-1.73 1.412-3.144m15.951-2.202c0 2.134.45 3.727 1.347 4.785.899 1.054 1.959 1.584 3.18 1.584 1.232 0 2.279-.504 3.14-1.514.862-1.009 1.292-2.548 1.292-4.618 0-2.28-.438-3.952-1.314-5.02-.879-1.064-1.959-1.599-3.243-1.599-1.252 0-2.3.513-3.14 1.536-.84 1.027-1.261 2.641-1.261 4.847m8.917 8.305v-2.095c-1.055 1.647-2.607 2.47-4.653 2.47a6.528 6.528 0 0 1-3.659-1.096c-1.112-.732-1.973-1.754-2.584-3.066-.612-1.31-.917-2.817-.917-4.521 0-1.661.276-3.168.83-4.52.554-1.353 1.384-2.39 2.492-3.112 1.107-.72 2.344-1.081 3.712-1.081 1.003 0 1.896.21 2.68.634a5.6 5.6 0 0 1 1.911 1.652v-8.245h2.812v22.98zm8.902-8.32c0 2.132.465 3.728 1.394 4.79.93 1.06 2.1 1.593 3.51 1.593 1.4 0 2.563-.535 3.493-1.6.93-1.067 1.394-2.692 1.394-4.878 0-2.06-.466-3.62-1.402-4.682-.935-1.059-2.096-1.591-3.486-1.591-1.409 0-2.578.53-3.509 1.584-.93 1.057-1.393 2.65-1.393 4.784m-2.896-.003c0-3.082.854-5.365 2.568-6.849 1.43-1.232 3.173-1.85 5.23-1.85 2.287 0 4.155.751 5.607 2.25 1.452 1.5 2.177 3.57 2.177 6.215 0 2.14-.321 3.825-.964 5.053a6.81 6.81 0 0 1-2.802 2.86c-1.227.679-2.566 1.019-4.018 1.019-2.328 0-4.21-.748-5.645-2.242-1.436-1.493-2.153-3.646-2.153-6.456m18.893 8.323v-16.647h2.52v2.33a5.927 5.927 0 0 1 2.081-1.962c.866-.494 1.85-.742 2.956-.742 1.23 0 2.239.256 3.027.765.787.512 1.343 1.225 1.665 2.143 1.318-1.939 3.034-2.908 5.146-2.908 1.653 0 2.924.457 3.813 1.37.89.916 1.333 2.324 1.333 4.224v11.427h-2.813v-10.49c0-1.13-.09-1.942-.275-2.44-.181-.497-.513-.895-.994-1.2-.482-.302-1.047-.454-1.694-.454-1.172 0-2.145.39-2.918 1.168-.774.78-1.16 2.027-1.16 3.741v9.675h-2.812v-10.82c0-1.255-.23-2.196-.69-2.823-.46-.626-1.21-.941-2.254-.941-.794 0-1.527.21-2.202.628-.672.417-1.161 1.03-1.462 1.835-.303.804-.455 1.965-.455 3.48v8.641zm37.336-8.355c-1.023.419-2.557.774-4.604 1.066-1.157.168-1.976.357-2.456.565-.481.208-.85.515-1.11.916a2.4 2.4 0 0 0-.393 1.341c0 .754.284 1.379.851 1.88.568.503 1.399.754 2.492.754 1.084 0 2.048-.238 2.89-.714.845-.476 1.465-1.125 1.86-1.95.303-.639.454-1.579.454-2.823zm.228 6.292c-1.048.891-2.055 1.522-3.017 1.887a8.649 8.649 0 0 1-3.102.55c-1.824 0-3.224-.446-4.204-1.34-.978-.893-1.468-2.034-1.468-3.422 0-.816.184-1.56.555-2.233a4.596 4.596 0 0 1 1.452-1.623 6.841 6.841 0 0 1 2.024-.924c.552-.147 1.385-.288 2.5-.424 2.27-.27 3.943-.595 5.016-.97.01-.387.016-.634.016-.738 0-1.15-.267-1.961-.799-2.43-.718-.64-1.786-.958-3.204-.958-1.325 0-2.301.233-2.932.699-.63.464-1.097 1.286-1.398 2.468l-2.751-.375c.25-1.181.663-2.135 1.237-2.861.574-.726 1.403-1.284 2.49-1.675 1.085-.393 2.345-.59 3.774-.59 1.419 0 2.574.167 3.462.502.886.335 1.538.756 1.956 1.261.418.507.71 1.148.878 1.92.094.482.14 1.35.14 2.602v3.762c0 2.623.06 4.282.182 4.978.12.693.357 1.358.714 1.997h-2.937c-.304-.59-.497-1.276-.584-2.063m7.008-14.583h2.812v16.645h-2.812zm0-6.334h2.812v3.25h-2.812zm7.127 22.98v-16.647h2.521v2.367c1.221-1.827 2.985-2.741 5.293-2.741 1.003 0 1.924.18 2.766.54.838.361 1.468.833 1.886 1.42.418.584.71 1.28.878 2.084.104.522.156 1.436.156 2.742v10.235h-2.812v-10.13c0-1.15-.11-2.01-.33-2.58-.22-.569-.609-1.025-1.166-1.363-.558-.342-1.214-.511-1.964-.511-1.202 0-2.238.381-3.108 1.145-.872.763-1.308 2.211-1.308 4.343v9.096zm29.294-8.448c0 1.997.272 3.44.816 4.33.89 1.454 2.092 2.18 3.611 2.18 1.235 0 2.303-.537 3.201-1.607.9-1.072 1.351-2.67 1.351-4.794 0-2.176-.432-3.781-1.296-4.816-.863-1.036-1.907-1.553-3.13-1.553-1.235 0-2.303.536-3.203 1.608-.899 1.07-1.35 2.621-1.35 4.652m.042 8.448h-2.604v-22.98h2.812v8.193c1.193-1.489 2.713-2.234 4.565-2.234 1.025 0 1.995.205 2.91.62a5.927 5.927 0 0 1 2.26 1.74c.59.745 1.054 1.646 1.387 2.702.336 1.055.503 2.184.503 3.386 0 2.852-.705 5.056-2.119 6.613-1.413 1.556-3.108 2.335-5.084 2.335-1.968 0-3.51-.818-4.63-2.454zm15.133 6.403-.313-2.654c.614.167 1.152.251 1.61.251.627 0 1.127-.104 1.502-.313.374-.21.684-.503.924-.878.176-.282.462-.981.86-2.098.052-.158.136-.387.25-.691l-6.333-16.667h3.04l3.47 9.598c.45 1.216.853 2.496 1.21 3.838a40.275 40.275 0 0 1 1.164-3.729l3.553-9.707h2.819l-6.31 16.939c-.68 1.825-1.209 3.08-1.585 3.77-.501.926-1.076 1.606-1.724 2.04-.648.431-1.421.647-2.32.647-.542 0-1.149-.114-1.817-.346m25.576-6.403v-22.98h15.5v2.71h-12.459v7.123h10.792v2.71h-10.792v10.437zm19.053 0v-16.647h2.522v2.527c.649-1.181 1.248-1.961 1.798-2.336a3.14 3.14 0 0 1 1.816-.565c.954 0 1.922.304 2.906.909l-.987 2.61c-.687-.402-1.376-.602-2.065-.602-.615 0-1.167.184-1.658.556-.489.37-.84.885-1.048 1.544-.314 1.003-.47 2.1-.47 3.29v8.714zm12.828-9.917h9.292c-.125-1.403-.48-2.456-1.065-3.158-.899-1.089-2.064-1.633-3.495-1.633-1.296 0-2.384.435-3.266 1.304-.883.868-1.371 2.03-1.466 3.487m9.262 4.542 2.916.375c-.46 1.703-1.311 3.024-2.554 3.964-1.242.94-2.829 1.41-4.761 1.41-2.432 0-4.363-.749-5.787-2.249-1.425-1.498-2.138-3.601-2.138-6.308 0-2.8.72-4.972 2.161-6.518 1.441-1.547 3.31-2.32 5.608-2.32 2.224 0 4.041.757 5.45 2.272 1.409 1.514 2.114 3.646 2.114 6.392 0 .168-.005.42-.015.753h-12.422c.104 1.83.622 3.233 1.552 4.207.932.972 2.093 1.46 3.484 1.46 1.034 0 1.917-.274 2.65-.822.732-.546 1.311-1.418 1.742-2.616m8.578-4.542h9.292c-.126-1.403-.48-2.456-1.065-3.158-.899-1.089-2.064-1.633-3.495-1.633-1.296 0-2.384.435-3.266 1.304-.883.868-1.372 2.03-1.466 3.487m9.26 4.542 2.918.375c-.46 1.703-1.311 3.024-2.554 3.964-1.242.94-2.829 1.41-4.76 1.41-2.434 0-4.364-.749-5.788-2.249-1.426-1.498-2.138-3.601-2.138-6.308 0-2.8.72-4.972 2.161-6.518 1.441-1.547 3.31-2.32 5.607-2.32 2.224 0 4.041.757 5.45 2.272 1.411 1.514 2.115 3.646 2.115 6.392 0 .168-.005.42-.015.753h-12.422c.104 1.83.622 3.233 1.553 4.207.93.972 2.092 1.46 3.483 1.46 1.034 0 1.918-.274 2.65-.822.732-.546 1.312-1.418 1.74-2.616m5.811-2 2.875-.25c.136 1.152.45 2.098.945 2.837.495.739 1.264 1.336 2.307 1.792 1.041.455 2.214.683 3.516.683 1.157 0 2.178-.172 3.064-.518.885-.346 1.544-.821 1.978-1.424a3.305 3.305 0 0 0 .648-1.968c0-.721-.208-1.35-.624-1.889-.414-.539-1.104-.99-2.065-1.356-.616-.24-1.979-.615-4.088-1.123-2.11-.506-3.59-.985-4.437-1.436-1.099-.574-1.918-1.289-2.456-2.142-.539-.852-.808-1.808-.808-2.866 0-1.161.329-2.246.988-3.256.657-1.009 1.62-1.776 2.884-2.3 1.264-.522 2.67-.784 4.217-.784 1.704 0 3.205.274 4.508.822 1.301.548 2.301 1.353 3.003 2.417.7 1.064 1.076 2.268 1.128 3.615l-2.916.229c-.158-1.45-.687-2.544-1.59-3.285-.904-.742-2.24-1.111-4.004-1.111-1.84 0-3.178.337-4.02 1.012-.841.676-1.261 1.488-1.261 2.44 0 .827.297 1.507.893 2.04.584.535 2.114 1.081 4.583 1.64 2.47.56 4.165 1.048 5.085 1.465 1.336.616 2.324 1.398 2.962 2.343.637.945.956 2.035.956 3.265 0 1.223-.351 2.375-1.05 3.455-.7 1.083-1.702 1.923-3.013 2.523-1.31.6-2.785.901-4.423.901-2.077 0-3.818-.304-5.221-.91-1.404-.605-2.505-1.517-3.304-2.734-.797-1.216-1.219-2.592-1.26-4.127m28.966 7.375-8.887-22.98h3.296l5.97 16.688a53.41 53.41 0 0 1 1.207 3.76 48.169 48.169 0 0 1 1.239-3.76l6.209-16.688h3.108l-8.997 22.98zm25.597-9v-2.708h9.729v8.517c-1.493 1.191-3.036 2.087-4.624 2.686a13.695 13.695 0 0 1-4.888.901c-2.259 0-4.308-.484-6.15-1.45-1.846-.967-3.238-2.366-4.178-4.195-.94-1.83-1.41-3.874-1.41-6.131 0-2.237.467-4.325 1.402-6.264.935-1.94 2.28-3.38 4.035-4.32 1.756-.941 3.777-1.41 6.065-1.41 1.66 0 3.163.269 4.505.807 1.343.539 2.395 1.291 3.158 2.252.762.963 1.342 2.219 1.74 3.77l-2.744.75c-.346-1.17-.774-2.09-1.287-2.761-.51-.67-1.243-1.208-2.193-1.61-.952-.403-2.008-.605-3.168-.605-1.39 0-2.592.211-3.606.635-1.014.423-1.833.98-2.454 1.67a7.977 7.977 0 0 0-1.451 2.271c-.584 1.422-.877 2.963-.877 4.624 0 2.048.353 3.762 1.058 5.14.706 1.382 1.732 2.404 3.08 3.074a9.548 9.548 0 0 0 4.296 1.002c1.318 0 2.603-.252 3.859-.757 1.253-.507 2.204-1.045 2.852-1.62v-4.268zm14.638 5.792h3.208v3.208h-3.208zm9.955-5.112c0 2.132.465 3.728 1.395 4.79.929 1.06 2.098 1.593 3.509 1.593 1.4 0 2.564-.535 3.493-1.6.93-1.067 1.395-2.692 1.395-4.878 0-2.06-.468-3.62-1.403-4.682-.934-1.059-2.096-1.591-3.485-1.591-1.41 0-2.58.53-3.51 1.584-.929 1.057-1.394 2.65-1.394 4.784m-2.896-.003c0-3.082.856-5.365 2.57-6.849 1.429-1.232 3.173-1.85 5.23-1.85 2.287 0 4.155.751 5.607 2.25 1.452 1.5 2.177 3.57 2.177 6.215 0 2.14-.323 3.825-.964 5.053a6.818 6.818 0 0 1-2.803 2.86c-1.226.679-2.565 1.019-4.017 1.019-2.328 0-4.21-.748-5.647-2.242-1.436-1.493-2.153-3.646-2.153-6.456m18.861 8.323v-16.647h2.52v2.527c.651-1.181 1.25-1.961 1.8-2.336a3.133 3.133 0 0 1 1.815-.565c.953 0 1.923.304 2.907.909l-.987 2.61c-.688-.402-1.376-.602-2.065-.602-.615 0-1.167.184-1.658.556-.489.37-.84.885-1.048 1.544-.316 1.003-.472 2.1-.472 3.29v8.714zm12.531-8.62c0 2.185.433 3.779 1.3 4.781.865 1.004 1.95 1.506 3.255 1.506 1.294 0 2.378-.499 3.256-1.498.877-.997 1.314-2.562 1.314-4.696 0-2.037-.45-3.573-1.354-4.609-.902-1.033-1.99-1.552-3.263-1.552-1.252 0-2.316.51-3.193 1.53-.876 1.018-1.315 2.531-1.315 4.538m-2.333 9.995 2.75.417c.115.843.434 1.457.954 1.843.7.521 1.654.781 2.864.781 1.302 0 2.309-.261 3.02-.784.708-.523 1.188-1.255 1.438-2.196.146-.576.214-1.783.203-3.624-1.232 1.459-2.765 2.188-4.604 2.188-2.287 0-4.056-.825-5.31-2.477-1.251-1.651-1.878-3.63-1.878-5.94 0-1.588.288-3.054.863-4.396.573-1.342 1.406-2.38 2.498-3.111 1.091-.73 2.374-1.097 3.846-1.097 1.962 0 3.582.792 4.856 2.374v-2h2.604v14.386c0 2.592-.263 4.428-.791 5.508-.528 1.081-1.364 1.934-2.507 2.562-1.145.627-2.552.94-4.224.94-1.985 0-3.589-.446-4.812-1.34-1.222-.893-1.812-2.237-1.77-4.034" fill="#231f20"/><path d="M126.104 496.995a309.95 309.95 0 0 1-2.735-46.802c.022-1.26.035-2.524.035-3.784 0-21.446-3.108-43.118-9.783-63.525-4.361-13.328-7.626-26.715-9.834-40.072-5.707 3.53-9.532 9.847-9.532 17.015v117.182c0 10.992 8.994 19.986 19.986 19.986zm654.09-154.18c-2.207 13.354-5.474 26.741-9.833 40.069-6.676 20.407-9.781 42.079-9.781 63.525 0 1.26.01 2.522.03 3.784a309.949 309.949 0 0 1-2.733 46.802h11.866c10.992 0 19.985-8.994 19.985-19.986V359.827c0-7.168-3.825-13.482-9.533-17.012m-543.863-56.048c-28.556 12.542-48.147 44.381-43.757 71.116 4.389 26.734 31.097 38.24 59.653 25.702 28.556-12.544 48.145-44.382 43.756-71.117-4.39-26.733-31.096-38.24-59.652-25.701m7.007 289.342-30.748-12.006c-5.516-2.156-10.03 1.284-10.03 7.644 0 6.357 4.514 13.322 10.03 15.476l30.748 12.006c5.517 2.154 10.03-1.286 10.03-7.642 0-6.36-4.513-13.324-10.03-15.478m397.304 0c-5.515 2.154-10.03 9.118-10.03 15.478 0 6.356 4.515 9.796 10.03 7.642l30.746-12.006c5.518-2.154 10.03-9.119 10.03-15.476 0-6.36-4.512-9.8-10.03-7.644zm-14.304-2.244c-8.39 3.276-15.256 13.867-15.256 23.539s6.866 14.901 15.256 11.627l46.765-18.264c8.39-3.279 15.255-13.866 15.255-23.538s-6.866-14.902-15.255-11.628zm-368.698 0-46.762-18.264c-8.392-3.274-15.255 1.956-15.255 11.628s6.863 20.259 15.255 23.538l46.762 18.264c8.392 3.274 15.258-1.955 15.258-11.627s-6.866-20.263-15.258-23.539m112.767-69.934c-10.43 0-18.884 15.064-18.884 33.644 0 18.581 8.455 33.645 18.884 33.645 10.43 0 18.885-15.064 18.885-33.645 0-18.58-8.456-33.644-18.885-33.644m143.167 0c-10.432 0-18.886 15.064-18.886 33.644 0 18.581 8.454 33.645 18.886 33.645 10.428 0 18.885-15.064 18.885-33.645 0-18.58-8.457-33.644-18.885-33.644m-124.32-60.3c15.665-11.744 33.361-17.719 52.736-17.719 19.373 0 37.07 5.975 52.734 17.719-.116 49.134-6.161 81.472-16.474 112.021-3.49 10.328-.762 21.088 7.226 28.508 7.991 7.416 18.923 9.344 28.964 5.103 6.999-2.958 12.476-8.202 15.971-15.378 9.961-20.47 16.72-43.469 20.488-68.812 33.21 28.972 73.953 41.124 115.74 32.626 31.944-6.491 58.983-27.587 77.399-59.018-18.478 26.242-44.376 43.826-74.619 49.488-56.099 10.515-110.341-12.846-147.405-61.777-21.275-28.09-48.454-42.533-80.024-42.533-31.572 0-58.746 14.444-80.023 42.533-37.063 48.93-91.305 72.292-147.41 61.777-30.237-5.662-56.134-23.244-74.613-49.482 18.416 31.428 45.454 52.521 77.396 59.012 41.788 8.498 82.532-3.651 115.742-32.626 3.766 25.344 10.522 48.342 20.489 68.812 3.493 7.176 8.97 12.42 15.968 15.378 10.041 4.241 20.975 2.313 28.963-5.103 7.986-7.42 10.716-18.18 7.228-28.508-10.314-30.55-16.358-62.887-16.476-112.021M155.6 300.28c-8.72 10.076-16.119 21.3-22.139 33.374a148.147 148.147 0 0 1 18.594-24.482C218.58 238.32 323.7 192.591 441.99 192.591c118.288 0 223.409 45.729 289.938 116.582a148.433 148.433 0 0 1 18.592 24.482c-6.02-12.074-13.42-23.298-22.138-33.374C662.669 224.357 558.836 175.35 441.99 175.35c-116.843 0-220.678 49.008-286.391 124.932m514.07 5.692c-20.142 0-31.07 19.44-24.409 43.414 6.659 23.978 28.386 43.413 48.527 43.413 20.14 0 31.068-19.435 24.407-43.413-6.662-23.974-28.388-43.414-48.526-43.414m-227.678 291.3c-24.336 0-44.063 23.616-44.063 52.746 0 11.509 3.08 22.152 8.305 30.824 8-13.279 21.035-21.922 35.758-21.922 14.722 0 27.756 8.643 35.76 21.922 5.222-8.672 8.304-19.315 8.304-30.824 0-29.13-19.728-52.746-44.064-52.746M339.62 262.075c-17.677 7.761-29.866 27.1-27.224 43.186 2.644 16.088 19.114 22.838 36.791 15.074 17.677-7.764 29.864-27.1 27.224-43.187-2.641-16.09-19.113-22.837-36.79-15.073M441.99 788.767c-28.35 0-51.435 17.617-52.354 39.618 8.759-12.18 28.9-20.702 52.354-20.702 23.453 0 43.593 8.522 52.356 20.702-.922-22.001-24.008-39.618-52.356-39.618m0-26.642c29.51 0 53.542 18.338 54.497 41.242-9.117-12.68-30.084-21.555-54.497-21.555-24.414 0-45.379 8.875-54.499 21.555.957-22.904 24.99-41.242 54.499-41.242m0-26.644c-30.671 0-55.651 19.06-56.643 42.866 9.476-13.178 31.268-22.399 56.643-22.399 25.374 0 47.166 9.221 56.644 22.399-.994-23.806-25.972-42.866-56.644-42.866m0 79.931c27.188 0 49.328 16.893 50.206 37.993-8.397-11.681-27.714-19.856-50.206-19.856-22.491 0-41.808 8.175-50.21 19.856.882-21.1 23.024-37.993 50.21-37.993m0-106.57c-31.832 0-57.758 19.78-58.788 44.485 9.834-13.676 32.453-23.248 58.788-23.248 26.336 0 48.953 9.572 58.789 23.248-1.03-24.706-26.956-44.486-58.79-44.486m0-686.136c34.33 0 67.54 4.795 99 13.742 6.354 46.856 4.631 88.69-7.785 123.872 18.472-13.51 29.254-39.762 35.002-74.346 1.61-9.677 7.262-17.294 16.06-21.64 8.798-4.348 18.28-4.205 26.946.398 35.256 18.734 67.043 43.138 94.136 72.002 62.566 66.65 82.348 155.64 53.927 242.527-6.636 20.285-10.359 43.068-10.359 67.15 0 1.331.012 2.658.035 3.985.47 27.438-2.79 54.056-9.385 79.341-10.899 41.779-37.392 73.276-76.69 91.177l-57.214 26.062-27.643 71.074a298.22 298.22 0 0 1-39.957 14.111c-30.591 8.42-42.835-33.965-96.072-33.965-53.236 0-65.483 42.385-96.072 33.962a298.154 298.154 0 0 1-39.959-14.105l-27.64-71.077-57.216-26.062c-39.296-17.901-65.787-49.396-76.688-91.177-6.596-25.285-9.856-51.903-9.387-79.341.023-1.327.034-2.654.034-3.986 0-24.081-3.722-46.864-10.359-67.149-28.423-86.881-8.635-175.876 53.928-242.527 27.093-28.862 58.879-53.266 94.136-72.002 8.665-4.603 18.148-4.744 26.947-.398 8.797 4.346 14.448 11.964 16.057 21.642 5.75 34.584 16.532 60.834 35.004 74.344-12.417-35.182-14.137-77.016-7.784-123.872 31.46-8.948 64.67-13.742 98.999-13.742" fill="#211d1d" fill-rule="evenodd"/></svg></svg>