<svg width="24" height="29" viewBox="0 0 24 29" fill="none" xmlns="http://www.w3.org/2000/svg">
<g id="logomobile">
<g id="Group 13">
<path id="Vector" d="M20.0611 15.5581C20.072 14.2427 20.0066 13.3876 20.0066 13.3876H6.12765V16.1888C7.82393 16.1346 7.97285 17.659 7.97285 17.659V22.859H3.16733V17.4307C3.16733 16.1501 5.04523 16.1849 5.04523 16.1849V13.3915H0.0290365C-0.395941 25.9426 3.9846 28.5 3.9846 28.5H16.091C17.1371 27.5985 17.9108 26.3604 18.4811 24.9792C20.6495 24.5613 23.3883 24.422 23.9513 20.0965C24.4707 16.123 20.6786 15.6162 20.0575 15.562L20.0611 15.5581ZM22.1533 20.2899C21.7501 23.064 19.1639 22.9557 19.1639 22.9557C19.6579 21.1218 19.894 19.2027 19.9957 17.57C20.0175 17.57 20.0429 17.57 20.0647 17.57C20.4498 17.57 22.5601 17.512 22.1569 20.2861L22.1533 20.2899Z" fill="url(#paint0_linear_91_404)"/>
<path id="Vector_2" d="M6.24392 17.0865C6.26571 17.2064 6.45459 17.5585 5.09248 18.6031C3.73037 19.6478 4.19167 20.7659 4.19167 20.7659C3.82481 21.2766 3.74854 22.182 3.74854 22.182L3.981 22.2245C4.12266 21.4391 4.26069 21.1373 4.3515 21.0213C4.3515 21.0213 4.54401 20.6344 5.19055 20.0076C5.8371 19.3808 6.15674 19.1332 6.17127 18.8159C6.17127 18.8159 6.35289 19.2377 5.9606 19.5936C5.37943 20.1198 4.80553 20.7001 4.61302 20.9516C5.17602 20.9594 6.72701 20.7853 7.1302 19.3228C7.5806 17.6901 6.24392 17.0865 6.24392 17.0865Z" fill="url(#paint1_linear_91_404)"/>
<path id="Vector_3" d="M11.765 0.5C11.765 0.5 7.08297 1.46725 6.30203 4.47347C5.52109 7.47969 6.94858 9.89008 9.23329 10.4047C9.23329 10.4047 7.48979 8.11807 7.55153 5.96304C7.61328 3.808 9.93432 1.86963 11.765 0.5Z" fill="url(#paint2_linear_91_404)"/>
<path id="Vector_4" d="M8.56494 12.2386C8.56494 12.2386 10.8242 10.6175 10.7843 9.58446C10.7443 8.55144 9.2914 8.05621 9.41126 6.36932C9.53113 4.68243 11.6705 3.73839 13.2869 3.95506C13.2869 3.95506 10.4828 5.20088 10.8242 6.68658C11.1657 8.17228 13.2106 9.07375 11.765 10.7258C10.3193 12.3779 8.56494 12.2386 8.56494 12.2386Z" fill="url(#paint3_linear_91_404)"/>
</g>
</g>
<defs>
<linearGradient id="paint0_linear_91_404" x1="-0.00204614" y1="19.8148" x2="24.0478" y2="19.8148" gradientUnits="userSpaceOnUse">
<stop stop-color="#8FB8F6"/>
<stop offset="1" stop-color="#832AD6"/>
</linearGradient>
<linearGradient id="paint1_linear_91_404" x1="5.48573" y1="17.0865" x2="5.48573" y2="22.2245" gradientUnits="userSpaceOnUse">
<stop stop-color="#8FB8F6"/>
<stop offset="1" stop-color="#832AD6"/>
</linearGradient>
<linearGradient id="paint2_linear_91_404" x1="8.92588" y1="0.5" x2="8.92588" y2="10.4047" gradientUnits="userSpaceOnUse">
<stop stop-color="#8FB8F6"/>
<stop offset="1" stop-color="#832AD6"/>
</linearGradient>
<linearGradient id="paint3_linear_91_404" x1="10.9259" y1="3.92438" x2="10.9259" y2="12.2415" gradientUnits="userSpaceOnUse">
<stop stop-color="#8FB8F6"/>
<stop offset="1" stop-color="#832AD6"/>
</linearGradient>
</defs>
</svg>
