<svg width="44" height="48" viewBox="0 0 44 48" fill="none" xmlns="http://www.w3.org/2000/svg">
<g id="Frame 99">
<g id="Group 13">
<path id="Vector" d="M36.7787 25.814C36.7987 23.5589 36.6788 22.0931 36.6788 22.0931H11.234V26.8951C14.3439 26.8023 14.6169 29.4155 14.6169 29.4155V38.3297H5.80678V29.0242C5.80678 26.8288 9.24958 26.8885 9.24958 26.8885V22.0998H0.0532337C-0.725892 43.6159 7.3051 48 7.3051 48H29.5002C31.418 46.4546 32.8365 44.3322 33.882 41.9644C37.8575 41.248 42.8785 41.0093 43.9107 33.594C44.863 26.7824 37.9108 25.9135 36.772 25.8207L36.7787 25.814ZM40.6144 33.9257C39.8752 38.6812 35.1339 38.4955 35.1339 38.4955C36.0395 35.3517 36.4724 32.0619 36.6588 29.263C36.6988 29.263 36.7454 29.263 36.7854 29.263C37.4912 29.263 41.3602 29.1635 40.6211 33.919L40.6144 33.9257Z" fill="url(#paint0_linear_91_357)"/>
<path id="Vector_2" d="M21.569 0C21.569 0 12.9853 1.65815 11.5536 6.81166C10.1219 11.9652 12.7389 16.0973 16.9276 16.9794C16.9276 16.9794 13.7311 13.0596 13.8444 9.36521C13.9576 5.67086 18.2128 2.34793 21.569 0Z" fill="url(#paint1_linear_91_357)"/>
<path id="Vector_3" d="M15.7024 20.1232C15.7024 20.1232 19.8444 17.3441 19.7712 15.5732C19.6979 13.8023 17.0342 12.9534 17.254 10.0616C17.4737 7.16976 21.396 5.55141 24.3593 5.92284C24.3593 5.92284 19.2184 8.05853 19.8444 10.6054C20.4704 13.1523 24.2195 14.6977 21.5691 17.5299C18.9188 20.362 15.7024 20.1232 15.7024 20.1232Z" fill="url(#paint2_linear_91_357)"/>
</g>
</g>
<defs>
<linearGradient id="paint0_linear_91_357" x1="-0.00375126" y1="33.1111" x2="44.0876" y2="33.1111" gradientUnits="userSpaceOnUse">
<stop stop-color="#8FB8F6"/>
<stop offset="1" stop-color="#832AD6"/>
</linearGradient>
<linearGradient id="paint1_linear_91_357" x1="16.364" y1="0" x2="16.364" y2="16.9794" gradientUnits="userSpaceOnUse">
<stop stop-color="#8FB8F6"/>
<stop offset="1" stop-color="#832AD6"/>
</linearGradient>
<linearGradient id="paint2_linear_91_357" x1="20.0309" y1="5.87024" x2="20.0309" y2="20.1282" gradientUnits="userSpaceOnUse">
<stop stop-color="#8FB8F6"/>
<stop offset="1" stop-color="#832AD6"/>
</linearGradient>
</defs>
</svg>
