<svg width="26" height="20" viewBox="0 0 26 20" fill="none" xmlns="http://www.w3.org/2000/svg">
<path id="Vector" d="M24.2273 0H1.77273C0.768182 0 0 0.866667 0 2V18C0 19.1333 0.768182 20 1.77273 20H24.2273C25.2318 20 26 19.1333 26 18V2C26 0.866667 25.2318 0 24.2273 0ZM24.8182 18.0667L15.8364 11.3333L24.8182 2.13333V18.0667ZM1.18182 18V2.2L10.1045 11.3333L1.18182 18ZM13.3545 12C13.1182 12.2667 12.7636 12.2667 12.5273 12L2.06818 1.33333H23.8136L13.3545 12ZM11.05 12.2667L11.8182 13.0667C12.1727 13.4 12.5864 13.6 13 13.6C13.4136 13.6 13.8273 13.4 14.1818 13.0667L14.95 12.2667L23.4591 18.6667H2.54091L11.05 12.2667Z" fill="#1F1F1F"/>
</svg>
