<svg width="56" height="56" viewBox="0 0 56 56" fill="none" xmlns="http://www.w3.org/2000/svg">
<path id="Close" d="M28 0C22.4621 0 17.0486 1.64217 12.444 4.71885C7.83947 7.79553 4.25064 12.1685 2.13139 17.2849C0.0121319 22.4012 -0.542361 28.0311 0.538025 33.4625C1.61841 38.894 4.28515 43.8831 8.20102 47.799C12.1169 51.7149 17.106 54.3816 22.5375 55.462C27.9689 56.5424 33.5988 55.9879 38.7151 53.8686C43.8315 51.7494 48.2045 48.1605 51.2812 43.556C54.3578 38.9514 56 33.5379 56 28C56 24.323 55.2758 20.682 53.8686 17.2849C52.4615 13.8877 50.399 10.801 47.799 8.20101C45.199 5.60097 42.1123 3.5385 38.7151 2.13137C35.318 0.724242 31.677 0 28 0ZM41.927 41.9161C41.2194 42.6232 40.2599 43.0204 39.2595 43.0204C38.2591 43.0204 37.2996 42.6232 36.592 41.9161L28.1904 33.5141L19.408 42.2971C18.7005 43.0044 17.7409 43.4016 16.7404 43.4015C15.74 43.4013 14.7806 43.0037 14.0732 42.2961C13.3659 41.5885 12.9687 40.6289 12.9689 39.6285C12.9691 38.628 13.3667 37.6686 14.0742 36.9613L22.856 28.181L14.6795 20.0031C13.9759 19.2948 13.5817 18.3365 13.5833 17.3382C13.585 16.3398 13.9823 15.3828 14.6882 14.6768C15.3941 13.9708 16.351 13.5733 17.3494 13.5716C18.3478 13.5698 19.3061 13.9638 20.0145 14.6673L28.1904 22.8451L35.9853 15.0497C36.6937 14.3462 37.6521 13.9522 38.6504 13.9539C39.6488 13.9556 40.6058 14.353 41.3117 15.059C42.0176 15.765 42.4149 16.722 42.4166 17.7204C42.4182 18.7187 42.0241 19.6771 41.3205 20.3854L33.5262 28.181L41.927 36.5804C42.6341 37.2882 43.0314 38.2478 43.0314 39.2483C43.0314 40.2488 42.6341 41.2084 41.927 41.9162V41.9161Z" fill="#F5F5F5"/>
</svg>
