<svg width="22" height="26" viewBox="0 0 22 26" fill="none" xmlns="http://www.w3.org/2000/svg">
<g id="Group 6">
<path id="Vector" d="M14.9548 13.2827L19.682 13.2827C19.9427 13.2827 20.1975 13.3628 20.4143 13.5128C20.631 13.6627 20.7999 13.8758 20.8997 14.1252C20.9994 14.3745 21.0255 14.6489 20.9747 14.9136C20.9238 15.1783 20.7983 15.4214 20.614 15.6123L11.932 24.6004C11.6848 24.8563 11.3496 25 11 25C10.6504 25 10.3152 24.8563 10.068 24.6004L1.38597 15.6123C1.20166 15.4214 1.07616 15.1783 1.02532 14.9136C0.974474 14.6489 1.00058 14.3745 1.10033 14.1252C1.20008 13.8758 1.369 13.6627 1.58574 13.5128C1.80247 13.3628 2.05729 13.2827 2.31797 13.2827L7.04524 13.2827L7.04524 9.18845L14.9548 9.18846L14.9548 13.2827Z" stroke="#FF8154" stroke-width="1.5" stroke-linecap="round" stroke-linejoin="round"/>
<path id="Vector_2" d="M14.9546 1L7.04506 0.999999" stroke="#FF8154" stroke-width="1.5" stroke-linecap="round" stroke-linejoin="round"/>
<path id="Vector_3" d="M14.9546 5.09421L7.04506 5.09421" stroke="#FF8154" stroke-width="1.5" stroke-linecap="round" stroke-linejoin="round"/>
</g>
</svg>
