<svg xmlns="http://www.w3.org/2000/svg" width="26" height="26" viewBox="0 0 26 26" fill="none">
  <path d="M24.8129 18.8648C23.7346 17.7568 20.6697 15.6812 18.6609 15.6812C18.1956 15.6812 17.7894 15.7847 17.4571 15.9989C16.4748 16.6267 15.6919 17.1142 15.3153 17.1142C15.1085 17.1142 14.8869 16.9295 14.3995 16.5085L14.3183 16.4347C12.9667 15.2602 12.6787 14.9574 12.1543 14.4108L12.0214 14.2705C11.9254 14.1744 11.8442 14.0858 11.7629 14.0045C11.305 13.5318 10.9727 13.192 9.7984 11.8625L9.7467 11.8034C9.18541 11.1682 8.81614 10.7545 8.79399 10.4517C8.77183 10.1562 9.03032 9.67614 9.68762 8.78239C10.4852 7.70398 10.5148 6.37443 9.78363 4.83068C9.20018 3.61193 8.24747 2.44489 7.40553 1.41818L7.33168 1.32955C6.60791 0.443182 5.76598 0 4.82803 0C3.78669 0 2.9226 0.561364 2.46471 0.856818C2.42778 0.878977 2.39085 0.908523 2.35393 0.930682C1.32736 1.58068 0.581433 2.47443 0.300788 3.38295C-0.120179 4.74943 -0.400824 6.52216 1.61539 10.208C3.35834 13.3989 4.93881 15.5409 7.44985 18.1187C9.81317 20.5415 10.8619 21.3244 13.2105 23.0233C15.8249 24.9142 18.3359 26 20.0936 26C21.7258 26 23.0109 26 24.8424 23.7915C26.7626 21.4722 25.965 20.054 24.8129 18.8648ZM23.9636 22.9937C22.4865 24.7812 21.6372 24.7812 20.101 24.7812C18.6018 24.7812 16.2754 23.7472 13.8825 22.0261C11.5931 20.3716 10.5739 19.6108 8.27701 17.2545C5.84722 14.7653 4.31844 12.6898 2.63457 9.60966C0.854692 6.35227 1.0541 4.9267 1.41598 3.75227C1.608 3.12443 2.18406 2.45227 2.96691 1.96477C3.00384 1.94261 3.04077 1.91307 3.08508 1.89091C3.47651 1.63977 4.12642 1.21875 4.83542 1.21875C5.42625 1.21875 5.95061 1.5142 6.45282 2.12727L6.52667 2.21591C8.40995 4.52045 9.87964 6.55909 8.77183 8.06591C7.98898 9.12216 7.5754 9.83864 7.64187 10.5773C7.70095 11.2938 8.181 11.833 8.90477 12.6455L8.95647 12.7045C10.1455 14.0489 10.4852 14.4034 10.9579 14.8835C11.0391 14.9648 11.1204 15.0534 11.2164 15.1494L11.3493 15.2898C11.8959 15.8585 12.1987 16.1687 13.5871 17.3875L13.6683 17.4614C14.2592 17.9784 14.6949 18.3551 15.3301 18.3551C15.9874 18.3551 16.7111 17.9415 18.0848 17.0625C18.2251 16.9739 18.4245 16.9222 18.6756 16.9222C20.2783 16.9222 23.0404 18.754 24.0079 19.7511C24.8941 20.6523 25.3373 21.3318 23.9636 22.9937Z" fill="#1F1F1F"/>
</svg>